# xmcd CD database file
#
# Track frame offsets:
#	150
#	21691
#	52836
#	77253
#	98806
#	121582
#	142164
#	179888
#	213709
#
# Disc length: 3194 seconds
#
# Revision: 0
# Processed by: cddbd v1.5.2PL0 Copyright (c) Steve Scherf et al.
# Submitted via: CDex 1.51
#
DISCID=7e0c7809
DTITLE=BuschFunk Blues Band: - 25 Jahre BuschFunk  CD2
DYEAR=2014
DGENRE=Blues
TTITLE0=Gahler, Frank - Rettungsboot
TTITLE1=Gahler, Frank - Rambling On My Mind
TTITLE2=Bodag, Wolfram - Schwarze Polster 
TTITLE3=Bodag, Wolfram - Slow Down 
TTITLE4=Stumpen and Buzzdee - Ich verachte Jugendliche 
TTITLE5=Stumpen and Buzzdee - Girl From Siebenbrücken
TTITLE6=Brüning, Uschi - Black Coffee
TTITLE7=Brüning, Uschi - Compared To What
TTITLE8=Gundermann, Gerhard - Der Mond ist aufgefangen
EXTD=YEAR: 2014
EXTT0=
EXTT1=
EXTT2=
EXTT3=
EXTT4=
EXTT5=
EXTT6=
EXTT7=
EXTT8=
PLAYORDER=
